<svg width="400" height="400" viewBox="0 0 400 400" fill="none" xmlns="http://www.w3.org/2000/svg">
<g clip-path="url(#clip0_0_1)">
<path d="M190.667 1.20001C188.8 1.73334 184.933 3.46667 182 5.06667C174.267 9.06667 7.86667 176.267 3.86667 184C-0.8 192.933 -0.533333 207.467 4.26667 216.8C10.2667 228.4 20.8 235.067 35.0667 236.8L42.5333 237.733L42.9333 302.533C43.3333 366.933 43.3333 367.333 46.4 374.133C50.2667 382.667 60 392.267 68.6667 396.267C75.0667 399.2 76.9333 399.333 114.4 399.733L153.333 400.133L157.333 396.133L161.333 392.267V341.067C161.333 293.867 161.467 289.6 163.867 285.333C168.933 275.867 170.667 275.333 198.4 274.933C227.6 274.533 230.667 275.333 235.733 285.333C238.667 291.2 238.667 292 238.667 341.733V392.267L242.667 396.133L246.667 400.133L285.6 399.733C322.4 399.333 325.067 399.2 330.933 396.4C339.733 392.4 348.667 383.6 352.933 374.8L356.667 367.333L357.067 302.667L357.467 237.867L366.8 236.4C378.533 234.533 387.2 229.467 392.933 220.8C400.933 209.067 402 195.867 396 183.867C391.6 175.067 225.733 9.06667 216.667 4.40001C209.6 0.800008 196.8 -0.799992 190.667 1.20001Z" fill="#713422"/>
</g>
<defs>
<clipPath id="clip0_0_1">
<rect width="400" height="400" fill="white"/>
</clipPath>
</defs>
</svg>
