 <svg  version="1.0" xmlns="http://www.w3.org/2000/svg"  width="300.000000pt" height="300.000000pt" viewBox="0 0 300.000000 300.000000"  preserveAspectRatio="xMidYMid meet">  <g transform="translate(0.000000,300.000000) scale(0.100000,-0.100000)" fill="#713422" stroke="none"> <path d="M1042 2918 l-82 -83 187 -187 188 -188 -184 -184 c-168 -169 -183 -186 -170 -202 26 -33 140 -144 147 -144 4 0 89 82 189 182 l183 183 183 -183 c100 -100 187 -182 192 -182 5 0 45 35 87 77 l78 78 -187 187 -188 188 188 188 187 187 -82 83 -83 82 -187 -187 -188 -188 -188 188 -187 187 -83 -82z"/> <path d="M488 2090 c-130 -82 -237 -169 -362 -292 l-120 -118 40 -41 c21 -22 60 -59 86 -81 l48 -40 82 87 c45 48 128 124 184 169 86 69 138 103 286 188 9 5 -14 35 -72 93 -46 47 -87 85 -90 84 -3 0 -40 -22 -82 -49z"/> <path d="M2340 2054 c-48 -49 -80 -88 -73 -91 30 -11 184 -109 252 -160 42 -31 129 -108 193 -171 l117 -114 83 81 83 81 -125 123 c-130 128 -248 222 -369 295 -39 23 -72 42 -74 42 -1 0 -41 -39 -87 -86z"/> <path d="M1330 1710 c-301 -38 -574 -174 -818 -406 l-97 -93 82 -82 82 -82 81 77 c183 171 335 262 535 320 270 78 546 51 810 -79 126 -63 215 -127 333 -239 l83 -80 82 83 82 82 -104 99 c-210 201 -451 330 -716 385 -92 19 -340 28 -435 15z"/> <path d="M1317 1041 c-146 -40 -286 -123 -394 -233 l-62 -63 80 -83 79 -84 84 79 c246 232 537 232 783 -1 l84 -79 82 81 82 82 -70 71 c-116 117 -258 199 -407 234 -88 21 -256 18 -341 -4z"/> <path d="M1415 354 c-47 -24 -73 -53 -91 -100 -32 -84 -3 -172 75 -225 54 -36 143 -34 199 5 115 80 106 251 -18 317 -43 23 -124 25 -165 3z"/> </g> </svg> 