<svg width="842" height="596" viewBox="0 0 842 596" fill="none" xmlns="http://www.w3.org/2000/svg">
<path fill-rule="evenodd" clip-rule="evenodd" d="M255.72 64.73C255.72 69.32 260.31 70.69 262.55 75.16C267.89 85.83 259.95 92.54 276.08 100.36C279.68 102.22 278.69 101.1 280.42 104.21C278.06 105.45 274.09 106.94 271.36 107.56C269.13 106.07 267.76 104.33 265.78 102.47C264.54 101.35 260.2 96.89 260.07 101.6C259.95 103.59 262.05 108.55 263.05 110.04C266.78 115.5 275.71 118.11 282.66 125.06C285.14 127.54 285.88 128.66 287.87 131.39C290.23 134.49 291.84 134.49 291.97 138.84C286.63 137.47 286.88 131.39 282.91 131.39C279.68 131.39 282.66 133 277.07 133.13C275.83 128.29 268.01 121.59 263.17 121.59C261.19 121.59 260.69 122.95 258.95 124.07C259.45 129.04 262.17 136.61 264.66 139.83L269.75 145.42C271.73 147.53 273.1 149.64 275.46 151.25C272.73 155.22 263.29 163.29 258.83 165.9L252.25 170C243.56 175.34 239.09 182.79 228.92 189.49C225.69 191.48 223.21 192.84 220.35 194.83C218.86 195.95 217.62 196.82 216.01 198.06C213.53 199.92 213.28 198.81 212.91 202.28C217.38 201.04 220.85 197.56 224.58 195.08C233.02 189.24 250.9 172.86 258.96 171C257.72 174.6 243.94 184.28 240.71 187.26L212.53 211.83C210.05 213.32 201.61 214.06 198.01 215.43C193.79 217.04 190.44 218.91 186.22 221.01C174.55 226.72 164.13 234.42 153.58 241.86C150.35 244.09 147 246.83 143.77 249.18C141.91 250.67 140.67 251.54 138.43 253.03L117.7 267.68C115.46 269.05 113.73 269.54 111.62 270.66L99.95 276.24C97.97 277.48 95.85 278.35 94.37 279.84C92.26 282.07 91.76 284.68 95.98 284.68C102.69 284.68 109.51 280.58 115.35 278.6L116.71 278.1C120.06 277.11 119.94 276.49 123.91 276.36L120.31 278.59C112.86 281.69 106.16 286.16 98.34 288.65C94.49 289.89 92.01 290.63 91.01 294.48C92 295.6 91.88 295.6 92.63 296.96C96.47 296.71 96.73 295.35 100.94 295.35C104.17 295.35 101.44 300.31 120.18 294.85C130.48 291.75 140.91 288.77 150.59 284.05C158.41 280.33 165.36 277.47 172.81 273.37C177.9 270.52 192.3 264.18 197.26 264.06C194.78 267.66 185.72 271.51 181.25 274.36C173.92 279.2 165.36 281.81 164.24 284.66C166.73 283.54 167.97 283.42 170.57 281.8C180.88 275.6 192.66 271.87 203.59 267.15C207.31 265.54 214.14 261.81 217.86 261.57C217.74 265.29 216.62 266.66 215.13 269.64C214.38 271.25 214.38 271.01 213.64 272.99L205.2 292.6C200.73 302.9 191.92 325 193.28 335.42C194.4 343.49 192.54 344.48 188.69 350.93C184.97 357.26 172.8 383.82 168.46 386.8C168.71 376.37 184.84 354.78 185.71 343.98C182.48 344.85 182.11 348.7 180.99 351.55C179.37 355.89 178.51 360.36 176.15 364.09L168.7 377.12C167.96 378.61 167.83 378.98 167.09 380.47C164.36 386.68 162.87 392.51 159.15 398.1C144.26 421.06 157.29 407.66 135.57 434.59C133.33 437.45 133.46 437.2 131.6 440.55C128.87 445.51 127.63 446.63 128.87 451.85C137.19 451.85 141.04 449.37 146.62 441.67C147.99 439.81 150.35 434.34 152.33 438.19C153.45 440.18 152.33 440.3 151.09 441.91C149.48 444.14 147.86 445.88 145.88 448.24L137.81 457.42C136.45 459.03 129.37 466.61 132.97 466.61C138.68 466.61 135.7 462.27 148.61 457.55C160.52 453.08 155.43 448.49 161.02 444.39C169.58 446.75 163.88 452.21 162.39 454.19C157.43 460.27 170.21 457.54 173.19 446.74C175.17 439.66 180.52 435.07 185.48 430.23C195.29 420.55 193.05 414.96 196.28 403.91C198.02 397.7 199.01 395.47 201.62 390.26C203.36 386.91 205.84 380.33 209.57 379.34C209.57 383.68 208.58 382.81 207.83 387.41C206.71 395.23 204.85 403.92 201.38 411.49L193.56 425.02C190.96 428.74 186.36 432.59 183.26 436.19C184.13 439.17 184.13 437.93 185.74 440.29C183.01 442.15 179.16 446.62 179.16 450.22C179.16 457.79 192.57 448.11 194.55 445.88C195.91 444.27 195.91 443.89 197.53 442.16C198.65 440.79 199.39 440.05 200.39 438.56C201.63 436.7 201.63 436.33 202.62 434.22C204.73 429.38 205.72 423.79 208.71 419.57C210.07 417.46 213.8 413.74 214.54 412.25C215.41 410.76 216.65 404.43 217.27 401.82L222.61 379.98C223.73 375.51 224.97 374.15 226.08 370.3C233.16 346.59 234.4 339.89 238.49 316.06C239.48 310.35 239.61 306.38 240.85 304.39C239.11 301.91 238.24 308.61 237.13 312.09C236.01 315.32 236.14 319.17 232.66 320.03C233.03 304.76 242.22 280.56 243.33 259.09C244.07 244.57 241.84 248.54 254.75 240.84L273.62 230.91C277.09 228.92 280.2 227.93 283.55 225.94L290.99 221.85C291.12 221.85 291.36 221.6 291.49 221.6C302.54 213.41 293.73 224.21 307.75 207.45C312.34 202.11 320.41 200.13 325.25 195.16C327.11 193.17 330.09 188.21 333.07 188.21C336.79 188.21 363.98 202.61 371.55 206.7C379.99 211.17 388.18 216.01 397.12 219.73C399.98 220.97 401.09 221.71 403.21 222.71C405.69 223.83 407.68 224.57 410.28 225.56C419.96 229.41 428.65 233.75 438.46 235.99C438.46 239.09 438.59 240.95 438.09 243.81C437.35 248.03 438.09 247.29 435.24 249.15C434.49 246.3 434.37 246.54 434.37 242.57C428.66 246.79 430.65 265.91 430.65 272.23L430.77 286.38C431.15 292.96 434.12 292.71 435.24 298.55C436.85 306.74 442.31 318.16 452.49 318.41C451.87 315.8 451.25 315.68 450.75 314.44C450.75 314.19 450.63 314.07 450.5 313.82C449.38 309.1 451.62 310.97 447.52 306.13C445.29 303.28 442.18 295.83 441.56 292.23C440.57 287.27 442.18 286.15 442.68 281.31C445.91 282.18 444.92 282.55 446.28 285.9C447.89 290 449.26 294.47 448.39 298.69C447.77 302.04 447.4 301.92 449.01 304.65C449.88 306.14 465.15 325.88 458.32 325.88H489.6C488.11 323.02 487.12 321.41 486.12 317.81C484.14 310.98 481.16 307.26 479.54 299.69C478.92 296.96 477.68 292.86 475.57 291.25C475.57 295.1 476.44 297.21 477.19 300.31C473.71 299.07 469.12 281.2 465.64 274.74C469.24 269.4 468.99 269.9 468.99 263.19C468.99 257.73 466.88 254.38 466.51 249.16L469.74 248.42C467.88 247.43 466.88 247.18 465.52 245.19C464.16 243.33 463.41 240.85 465.64 240.47C468.37 239.97 466.88 240.47 469.12 241.59C486.62 249.91 503.87 257.11 522.49 262.44C533.17 265.42 542.85 269.02 554.64 269.02V265.67C570.78 273.49 575.99 265.05 560.6 260.58C556.88 259.59 553.53 258.1 549.93 256.36L534.29 249.78C533.3 249.28 532.3 248.79 531.56 248.41C531.43 248.29 531.19 248.16 531.06 248.16L529.08 246.8C533.67 246.8 535.16 248.16 538.76 249.41C540.62 250.15 542.11 250.4 543.97 250.9C551.42 253.01 560.48 258.35 568.55 256.61C568.05 249.91 555.64 246.43 550.43 244.32C548.32 243.45 548.82 243.58 547.08 242.83L529.58 233.89C518.78 227.56 508.6 220.11 498.05 213.53C478.69 201.49 450.76 181.63 428.79 179.02C420.23 178.03 419.85 176.66 414.27 172.19C398.88 159.53 382.25 148.73 366.24 136.94C363.88 135.2 362.02 134.58 361.15 131.36L367.86 134.59C368.11 134.71 368.73 134.96 368.98 135.09L397.28 153.83C402.12 157.43 415.15 166.37 420.37 166.86C419.87 164.5 419.13 164.5 417.39 163.39C408.21 157.8 398.4 152.71 389.96 146.26C388.34 145.02 387.47 144.15 385.86 142.91L359.54 125.66C347.13 118.21 352.96 119.58 352.96 109.15H351.22C350.35 113.12 350.1 114.61 347.12 116.6L344.64 114.12C344.64 109.16 347.87 110.77 345.51 105.93C338.07 106.55 345.76 114.12 331.24 103.7C329.75 102.46 328.88 102.09 327.27 101.09L322.8 98.11C314.98 91.78 309.52 82.84 301.95 76.14L300.33 74.53C295.99 70.56 291.15 65.72 285.31 63.85C279.48 61.87 274.51 65.71 279.85 76.88C280.84 78.74 282.96 81.35 284.32 82.96C287.42 86.81 293.51 91.4 293.63 95.99C289.29 95.87 290.65 95.74 287.92 93.51L278.98 84.33C277.12 82.34 276.87 81.35 274.88 79.37C271.4 75.65 261.23 62.49 257.38 61.37C256.34 62.87 255.72 62.87 255.72 64.73Z" fill="#713422"/>
<path fill-rule="evenodd" clip-rule="evenodd" d="M187.33 256.62C188.2 253.39 187.95 254.63 191.18 253.02L214.76 239.61C218.24 237.75 220.47 236.01 225.19 236.01C223.33 238.86 209.55 245.07 203.72 248.3L196.89 252.15C194.16 254.01 191.18 256.37 187.33 256.62Z" fill="#713422"/>
<path fill-rule="evenodd" clip-rule="evenodd" d="M198.87 349.71C198.13 348.1 199.62 346.98 201.36 342.26C203.72 336.18 201.86 334.07 206.32 334.07C208.93 337.17 204.21 345.49 202.22 348.1C199.25 351.95 198.87 349.71 198.87 349.71Z" fill="#713422"/>
<path fill-rule="evenodd" clip-rule="evenodd" d="M202.97 375.28C203.84 373.54 204.09 372.3 204.71 370.44C206.2 366.59 208.81 359.27 212.03 357.16C214.27 359.77 208.31 369.2 206.45 372.18C205.33 374.04 205.33 374.66 202.97 375.28Z" fill="#713422"/>
<path d="M283.58 461.01C277.17 448.45 271.71 434.78 267.18 420.02C262.66 405.26 258.2 389.65 253.8 373.19C251.79 365.9 250.78 359.05 250.78 352.65C250.78 350.39 251.13 348.88 251.82 348.13C252.51 347.38 253.55 347 254.93 347C255.56 347 256.22 347.16 256.91 347.47C257.6 347.78 258.26 347.94 258.89 347.94C260.4 347.94 261.53 347 262.28 345.11C263.53 344.99 264.79 344.83 266.05 344.64C267.3 344.45 268.56 344.3 269.82 344.17V341.91C271.58 342.29 272.46 342.6 272.46 342.85C272.33 342.98 272.21 343.04 272.08 343.04H271.51C271.01 343.04 270.76 342.98 270.76 342.85C270.76 342.73 270.88 342.66 271.14 342.66C271.77 342.66 272.33 342.6 272.84 342.47V344.54C275.86 344.67 278.24 344.73 280 344.73C281.76 344.73 284.15 344.79 287.16 344.92C286.78 349.44 286.59 353.34 286.59 356.6C286.59 366.4 288.29 371.3 291.68 371.3C292.18 371.3 292.62 371.24 293 371.11C293 371.24 293.06 371.3 293.19 371.3C293.69 371.3 294.51 370.36 295.64 368.47H297.71C300.85 363.82 305.03 359.83 310.24 356.5C315.45 353.17 321.14 350.47 327.3 348.4C333.45 346.33 339.8 344.82 346.33 343.88C352.86 342.94 359.08 342.47 364.99 342.47C365.62 342.47 366.5 342.44 367.63 342.38C368.76 342.32 369.33 342.54 369.33 343.04C369.33 344.05 369.2 345.81 368.95 348.32C368.7 350.84 367.94 353.35 366.69 355.86H363.49C356.45 355.86 350.36 357.06 345.21 359.44C340.06 361.83 335.69 364.91 332.11 368.67C328.53 372.43 325.61 376.65 323.35 381.3C321.09 385.95 319.33 390.53 318.07 395.06C316.81 399.58 315.96 403.79 315.53 407.69C315.09 411.59 314.87 414.66 314.87 416.93C314.87 423.46 315.25 432.26 316 443.32H318.07C317.69 444.83 317.32 447.34 316.94 450.86C310.91 452.74 305.26 454.66 299.98 456.61C294.7 458.53 289.24 460 283.58 461.01Z" fill="#713422"/>
<path d="M376.5 324.56C369.46 329.34 362.36 331.72 355.2 331.72C351.55 331.72 348.95 330.78 347.38 328.89C345.81 327.01 345.02 324.43 345.02 321.16C345.27 320.28 345.4 319.06 345.4 317.48C345.4 315.91 345.78 313.87 346.53 311.36C348.16 310.98 350.33 310.36 353.03 309.48C355.73 308.6 357.96 308.16 359.72 308.16C360.72 308.16 361.73 308.35 362.74 308.73C362.86 308.61 363.05 308.42 363.31 308.16C363.56 307.91 363.75 307.59 363.88 307.22C364.26 307.85 364.57 308.45 364.82 309.01C365.07 309.58 365.32 309.98 365.57 310.24C365.44 310.74 365.32 311.15 365.19 311.47C365.06 311.78 364.94 312.07 364.81 312.32C367.57 310.56 369.71 309.68 371.22 309.68C373.23 309.68 374.42 311 374.8 313.64C375.3 318.29 376.06 321.18 377.06 322.31C376.81 323.31 376.62 324.06 376.5 324.56ZM388.75 454.04C385.86 452.79 383.85 452.16 382.72 452.16C382.09 452.16 381.78 452.35 381.78 452.73V453.11C381.78 453.74 381.59 454.05 381.21 454.05C380.71 454.05 380.11 453.83 379.42 453.39C378.73 452.95 378.07 452.39 377.44 451.69C376.81 451 376.25 450.31 375.74 449.62C375.24 448.93 374.92 448.33 374.8 447.83H372.73C372.98 448.58 373.11 449.03 373.11 449.15L372.92 449.53C372.92 449.91 373.74 450.98 375.37 452.73H369.34C365.07 444.06 361.71 436.02 359.26 428.61C356.81 421.2 354.89 414.41 353.51 408.26C353.01 406 352.5 403.24 352 399.97C351.5 396.7 351.06 393.12 350.68 389.23C350.3 385.34 350.02 381.35 349.83 377.26C349.64 373.18 349.55 369.25 349.55 365.48C349.55 359.2 349.99 354.64 350.87 351.82C351.75 348.99 352.69 347.58 353.7 347.58C354.08 348.08 354.58 348.65 355.21 349.28C355.21 348.65 355.46 348.09 355.96 347.58H358.03C358.03 346.07 358.56 345.26 359.63 345.13C360.7 345.01 361.8 344.94 362.93 344.94C366.82 344.94 370.22 345.54 373.11 346.73C376 347.93 377.82 350.15 378.58 353.42C378.7 353.92 378.8 355.28 378.86 357.47C378.92 359.67 379.02 362.37 379.14 365.57C379.26 368.77 379.42 372.29 379.61 376.12C379.8 379.95 379.99 383.69 380.18 387.33C380.37 390.98 380.56 394.34 380.75 397.41C380.94 400.49 381.16 402.91 381.41 404.67C382.04 409.32 382.92 414.13 384.05 419.09C385.18 424.05 386.28 428.73 387.35 433.13C388.42 437.53 389.33 441.39 390.08 444.72C390.83 448.05 391.21 450.28 391.21 451.41C391.21 452.79 390.83 453.45 390.08 453.39C389.31 453.32 388.87 453.54 388.75 454.04Z" fill="#713422"/>
<path d="M423.24 360.75C425.25 362.63 426.54 363.89 427.1 364.52C427.67 365.15 428.1 365.59 428.42 365.84C428.73 366.09 429.17 366.38 429.74 366.69C430.31 367 431.65 367.92 433.79 369.42C433.16 369.92 432.59 370.24 432.09 370.36C431.59 370.49 430.14 370.61 427.75 370.74C427.25 371.87 427 373 427 374.13H424.93C423.92 376.14 422.95 377.4 422.01 377.9C421.07 378.4 419.59 379.03 417.58 379.78V382.04C415.82 382.54 414.25 382.98 412.87 383.36C411.49 383.74 410.29 384.05 409.29 384.3C407.91 380.78 405.64 377.55 402.51 374.59C399.37 371.64 396.16 368.72 392.9 365.83C389.63 362.94 386.75 359.96 384.23 356.88C381.72 353.8 380.46 350.38 380.46 346.61C380.46 345.23 380.84 343.53 381.59 341.52C382.34 339.51 383.57 337.56 385.26 335.68C386.96 333.8 389.19 332.19 391.95 330.87C394.71 329.55 398.17 328.89 402.32 328.89C405.34 328.89 408.35 329.17 411.37 329.74C414.39 330.31 417.43 331.03 420.51 331.91C423.59 332.79 426.66 333.67 429.74 334.55C432.82 335.43 435.93 336.25 439.07 337C450 339.39 460.93 341.81 471.86 344.26C482.79 346.71 493.41 349.19 503.71 351.7C505.47 352.2 506.63 352.49 507.2 352.55C507.77 352.61 508.05 353.65 508.05 355.66V360.75C506.92 361.13 505.94 361.41 505.13 361.6C504.31 361.79 503.62 362.04 503.06 362.35C502.49 362.66 502.02 363.14 501.65 363.76C501.27 364.39 500.9 365.27 500.52 366.4H498.45C495.06 371.05 490.63 376.39 485.16 382.42C479.69 388.45 473.38 394.29 466.22 399.95C462.7 402.72 459.59 405.23 456.89 407.49C454.19 409.75 451.64 411.89 449.26 413.9C446.87 415.91 444.55 417.86 442.29 419.74C440.03 421.62 437.58 423.57 434.94 425.58C435.19 425.96 435.44 426.52 435.69 427.28C440.97 427.16 447.25 426.87 454.54 426.43C461.83 425.99 471.13 425.77 482.43 425.77C487.96 425.77 493.42 426.05 498.83 426.62C504.23 427.19 509.23 428.03 513.81 429.16C518.39 430.29 522.45 431.77 525.97 433.59C529.49 435.41 532.12 437.64 533.89 440.28C533.51 440.53 533.17 440.78 532.85 441.03C532.53 441.28 532.25 441.53 532 441.78C532.25 442.03 532.5 442.32 532.75 442.63C533 442.95 533.25 443.23 533.5 443.48C532.75 444.36 531.8 445.05 530.67 445.55C529.54 446.05 528.47 446.62 527.47 447.25C526.46 447.88 525.59 448.6 524.83 449.42C524.08 450.24 523.7 451.34 523.7 452.72H521.63V454.98C520.75 454.86 519.93 454.73 519.18 454.6C518.43 454.48 517.67 454.29 516.92 454.03C516.67 454.41 516.42 454.82 516.17 455.26C515.92 455.7 515.67 456.23 515.42 456.86C515.04 456.61 514.63 456.45 514.19 456.39C513.75 456.33 513.4 456.23 513.15 456.11V458.37C503.35 455.98 492.83 454.16 481.58 452.9C470.33 451.65 458.8 451.02 447 451.02C433.81 451.02 420.96 451.87 408.46 453.56C395.96 455.26 384.5 457.92 374.06 461.57C373.43 460.19 372.87 458.8 372.36 457.42C371.86 456.04 371.61 454.66 371.61 453.27C371.61 450.51 373.12 447.18 376.13 443.28C379.15 439.39 383.07 435.3 387.91 431.03C392.75 426.76 398.12 422.39 404.02 417.93C409.92 413.47 415.7 409.23 421.36 405.21C432.29 397.42 440.9 390.32 447.18 383.91C453.46 377.5 458.17 372.48 461.32 368.83C460.57 368.45 459.78 368.05 458.96 367.6C458.14 367.16 457.1 366.63 455.85 366C454.59 365.37 453.02 364.71 451.14 364.02C449.26 363.33 446.81 362.61 443.79 361.85C441.27 361.22 438.76 360.62 436.25 360.06C433.73 359.49 431.41 358.99 429.28 358.55C427.14 358.11 425.35 357.77 423.91 357.51C422.46 357.26 421.62 357.13 421.37 357.13H421.18H424.38C424.38 357.76 424.25 358.17 424 358.36C423.75 358.55 423.12 358.71 422.12 358.83C422.37 359.08 422.56 359.4 422.69 359.77C422.8 360.18 422.99 360.5 423.24 360.75Z" fill="#713422"/>
<path d="M520.11 497.39C515.96 496.76 513.14 495.66 511.63 494.09C510.12 492.52 509.37 490.42 509.37 487.78C509.37 485.39 510.03 482.79 511.35 479.96C512.67 477.13 514.27 474.37 516.16 471.67C518.04 468.97 520.05 466.49 522.19 464.23C524.33 461.97 526.27 460.27 528.03 459.14C532.18 456.25 536.45 453.96 540.85 452.26C545.25 450.56 549.52 449.03 553.67 447.64C553.67 447.77 554.14 448.05 555.08 448.49C556.02 448.93 557.03 449.4 558.1 449.9C559.17 450.4 560.17 450.88 561.12 451.31C562.06 451.75 562.53 452.03 562.53 452.16C561.27 452.54 559.77 453.51 558.01 455.08C556.25 456.65 553.49 458.44 549.72 460.45V462.71C548.97 463.09 548.15 463.81 547.27 464.88C546.39 465.95 545.51 467.14 544.63 468.46C543.75 469.78 542.9 471 542.09 472.13C541.27 473.26 540.55 474.02 539.92 474.39C540.3 475.64 541.93 476.71 544.82 477.59C547.71 478.47 551.13 479.22 555.09 479.85C559.05 480.48 563.13 480.98 567.34 481.36C571.55 481.74 575.16 481.99 578.18 482.11C584.08 482.61 589.8 483.3 595.33 484.18C600.86 485.06 606.26 486.13 611.54 487.38C612.29 487.63 613.02 487.82 613.71 487.95C614.4 488.07 615.06 488.14 615.69 488.14C618.2 488.14 619.46 486.82 619.46 484.18V483.24C618.83 477.33 617.23 470.77 614.65 463.54C612.07 456.31 609.09 449.03 605.7 441.68C602.31 434.33 598.79 427.33 595.15 420.67C591.5 414.01 588.36 408.3 585.73 403.52C583.22 406.91 579.98 410.3 576.02 413.7C572.06 417.09 567.88 420.14 563.49 422.84C559.09 425.54 554.63 427.74 550.11 429.44C545.59 431.14 541.56 431.98 538.05 431.98C533.53 431.98 529.85 431.07 527.02 429.25C524.19 427.43 521.77 424.89 519.76 421.62C517.75 418.35 515.96 414.46 514.39 409.94C512.82 405.42 511.03 400.45 509.02 395.05C506 387.39 504.5 377.9 504.5 366.59C504.5 362.95 504.69 359.05 505.07 354.91C506.33 354.53 507.52 354.06 508.65 353.5C509.78 352.93 511.04 352.34 512.42 351.71C512.42 350.71 512.73 350.01 513.36 349.64C513.99 349.26 514.68 348.95 515.43 348.7V346.63C518.32 346 520.64 345.4 522.4 344.84C524.16 344.27 525.73 343.99 527.11 343.99C529.24 343.99 530.94 345.56 532.2 348.7C533.45 351.84 534.49 355.74 535.31 360.38C536.13 365.03 536.85 370.09 537.48 375.55C538.11 381.02 538.89 386.08 539.84 390.72C540.78 395.37 542.07 399.27 543.7 402.4C545.33 405.54 547.53 407.11 550.3 407.11C553.44 407.11 555.89 406.07 557.65 404C559.41 401.93 560.67 399.23 561.42 395.9C562.17 392.57 562.61 388.8 562.74 384.59C562.86 380.38 562.93 376.14 562.93 371.87C562.93 368.6 562.87 365.43 562.74 362.35C562.61 359.27 562.55 356.6 562.55 354.34C562.55 352.96 562.58 351.64 562.64 350.38C562.7 349.13 562.86 348.5 563.11 348.5C563.36 348.5 563.58 348.56 563.77 348.69C563.96 348.82 564.18 348.88 564.43 348.88C564.55 348.88 565.06 348.72 565.94 348.41C566.82 348.1 567.7 347.81 568.58 347.56V345.68C570.34 344.43 571.78 343.32 572.91 342.38C574.04 341.44 575.8 340.97 578.19 340.97C578.69 340.22 579.32 339.46 580.07 338.71C580.45 338.84 581.01 338.9 581.77 338.9C583.15 338.9 584.41 338.71 585.54 338.33C586.67 337.95 587.86 337.76 589.12 337.76C590.25 337.76 591.13 337.89 591.76 338.14C591.88 343.29 593.14 349.04 595.53 355.38C597.92 361.73 600.87 368.45 604.39 375.55C607.91 382.65 611.71 389.87 615.79 397.22C619.87 404.57 623.74 411.76 627.38 418.8C629.27 422.57 631.27 426.69 633.41 431.14C635.54 435.6 637.62 440.16 639.63 444.8C641.64 449.45 643.43 454.07 645 458.65C646.57 463.23 647.86 467.54 648.86 471.56C649.11 472.81 649.24 473.88 649.24 474.76C649.24 478.4 648.23 482.2 646.22 486.16C644.21 490.12 641.7 493.85 638.68 497.37C635.66 500.89 632.37 503.9 628.79 506.42C625.21 508.93 621.85 510.44 618.71 510.94C616.7 511.32 614.66 511.57 612.59 511.69C610.52 511.81 608.28 511.88 605.9 511.88C598.48 511.88 590.54 511.25 582.06 509.99C573.58 508.73 565.35 507.29 557.37 505.66C549.39 504.03 542.1 502.39 535.51 500.76C528.87 499.14 523.75 498.01 520.11 497.39Z" fill="#713422"/>
<path d="M735.15 468.74C734.52 467.86 733.11 466.63 730.91 465.07C728.71 463.5 725.98 461.71 722.71 459.7C719.44 457.69 715.86 455.58 711.97 453.39C708.07 451.19 704.15 448.99 700.19 446.79C696.23 444.59 692.43 442.52 688.79 440.57C685.14 438.62 681.94 436.96 679.18 435.58C675.91 433.82 673.46 432.54 671.83 431.72C670.2 430.9 669.25 430.43 669 430.31C668.5 431.19 668.15 431.85 667.96 432.29C667.77 432.73 667.58 433.42 667.39 434.36C667.2 435.3 667.01 436.62 666.82 438.32C666.63 440.02 666.35 442.5 665.97 445.76H664.08V448.96C662.45 449.09 661.03 449.21 659.84 449.34C658.65 449.47 657.61 449.65 656.73 449.91V451.98C654.59 452.23 652.55 452.55 650.6 452.92C648.65 453.3 646.74 453.61 644.85 453.86C644.6 454.36 644.44 454.8 644.38 455.18C644.32 455.56 644.22 455.87 644.1 456.12C640.08 456.37 636.31 456.75 632.79 457.25C629.65 430.74 626.38 404.64 622.99 378.94C619.6 353.25 616.27 326.96 613 300.07C614.13 299.69 615.54 299.25 617.24 298.75C618.94 298.25 620.63 297.62 622.33 296.87C624.03 296.12 625.6 295.3 627.04 294.42C628.48 293.54 629.58 292.6 630.34 291.59C631.47 291.84 632.76 292.03 634.2 292.16C635.64 292.29 637.03 292.47 638.35 292.73C639.67 292.98 640.86 293.42 641.93 294.05C643 294.68 643.72 295.62 644.1 296.88H646.17C647.05 305.8 647.74 314.28 648.24 322.32C648.74 330.36 649.24 338.09 649.75 345.5C650.25 352.91 650.79 359.98 651.35 366.7C651.92 373.42 652.7 379.93 653.71 386.21C654.21 386.09 656.13 385.36 659.46 384.04C662.79 382.72 666.93 381.15 671.9 379.33C676.86 377.51 682.39 375.53 688.49 373.39C694.58 371.26 700.58 369.28 706.49 367.45C712.39 365.63 717.99 364.12 723.26 362.93C728.54 361.74 732.81 361.14 736.08 361.14C736.46 361.64 737.08 362.52 737.96 363.78C738.84 365.04 739.75 366.42 740.69 367.93C741.63 369.44 742.48 370.88 743.23 372.26C743.98 373.64 744.48 374.71 744.74 375.46C739.59 377.6 734.69 379.67 730.04 381.68C725.39 383.69 720.81 385.8 716.28 387.99C711.76 390.19 707.2 392.58 702.62 395.15C698.03 397.73 693.29 400.52 688.39 403.54C688.39 404.55 689.27 405.93 691.03 407.69C692.79 409.45 695.11 411.46 698 413.72C700.89 415.98 704.19 418.43 707.89 421.07C711.59 423.71 715.34 426.35 719.1 428.99C722.87 431.63 726.57 434.2 730.22 436.72C733.86 439.24 737 441.56 739.64 443.69C746.43 448.97 752.33 451.92 757.36 452.55C757.36 454.31 757.64 456.1 758.21 457.92C758.78 459.74 759.06 461.66 759.06 463.67C757.3 464.3 754.91 465.08 751.9 466.03C748.88 466.97 746.31 467.44 744.17 467.44C741.91 467.44 739.84 466.87 737.95 465.74C737.45 466.12 736.94 466.56 736.44 467.06C735.97 467.54 735.53 468.11 735.15 468.74Z" fill="#713422"/>
</svg>
