<?xml version="1.0" standalone="no"?>
<!DOCTYPE svg PUBLIC "-//W3C//DTD SVG 20010904//EN"
 "http://www.w3.org/TR/2001/REC-SVG-20010904/DTD/svg10.dtd">
<svg version="1.0" xmlns="http://www.w3.org/2000/svg"
 width="300.000000pt" height="300.000000pt" viewBox="0 0 300.000000 300.000000"
 preserveAspectRatio="xMidYMid meet">
<metadata></metadata>
<g transform="translate(0.000000,300.000000) scale(0.100000,-0.100000)"
fill="#a9a9a9" stroke="none">
<path d="M1905 2986 c-22 -7 -346 -192 -720 -410 l-679 -396 -147 0 c-147 0
-148 0 -210 -32 -68 -36 -120 -99 -139 -168 -7 -26 -10 -332 -8 -912 l3 -873
22 -40 c25 -47 84 -105 133 -131 33 -18 87 -19 1248 -22 809 -1 1226 1 1252 8
60 16 131 70 165 124 l30 49 3 254 3 253 27 14 c38 20 78 65 96 108 13 30 16
83 16 278 0 195 -3 248 -16 278 -18 43 -58 88 -96 108 l-28 15 0 242 c0 241 0
243 -26 295 -34 69 -94 119 -166 139 l-57 16 -198 346 c-109 190 -215 365
-236 388 -66 72 -176 100 -272 69z m155 -148 c19 -13 35 -28 37 -33 2 -6 -234
-149 -524 -318 l-527 -307 -130 0 c-74 0 -126 4 -121 9 6 4 266 157 580 340
625 363 613 358 685 309z m145 -222 c16 -30 27 -57 25 -60 -3 -2 -149 -88
-325 -190 l-319 -186 -130 0 c-71 0 -126 3 -122 7 13 13 821 482 831 483 6 0
24 -24 40 -54z m175 -304 c39 -68 70 -126 67 -128 -2 -2 -134 -3 -293 -2
l-289 3 219 127 c121 70 221 126 222 125 1 -1 34 -58 74 -125z m276 -284 c66
-36 69 -49 72 -300 l3 -228 -234 0 c-206 0 -243 -2 -299 -20 -226 -70 -344
-318 -258 -543 28 -75 114 -169 189 -206 86 -44 142 -51 381 -51 l220 0 0
-212 c0 -192 -2 -216 -20 -253 -40 -82 66 -76 -1292 -73 l-1208 3 -32 33 -33
32 -3 875 -2 875 32 36 c19 20 48 39 68 44 19 4 564 7 1210 7 1085 -2 1177 -3
1206 -19z m186 -685 c16 -15 18 -36 18 -254 l0 -239 -24 -15 c-21 -14 -63 -16
-313 -13 -253 3 -292 5 -320 21 -209 113 -204 401 7 496 42 19 65 21 329 21
251 0 287 -2 303 -17z"/>
<path d="M2261 1212 c-71 -36 -99 -117 -63 -182 68 -124 252 -80 252 60 0 59
-24 98 -73 121 -52 23 -73 24 -116 1z"/>
</g>
</svg>
